<?xml version="1.0" encoding="UTF-8"?>
<svg version="1.1" xmlns="http://www.w3.org/2000/svg" width="1024" height="1024">
<path d="M0 0 C337.92 0 675.84 0 1024 0 C1024 337.92 1024 675.84 1024 1024 C686.08 1024 348.16 1024 0 1024 C0 686.08 0 348.16 0 0 Z " fill="#FBF8F5" transform="translate(0,0)"/>
<path d="M0 0 C7.29008823 5.94094852 10.18221106 12.17484409 11.53125 21.3359375 C15.38586161 82.81300516 -7.77432115 149.15587465 -27.21875 206.7734375 C-27.47498138 207.54173889 -27.73121277 208.31004028 -27.99520874 209.10162354 C-35.51030963 231.54489209 -43.10298947 246.63817531 -63.46875 259.3359375 C-64.43675537 259.94163574 -64.43675537 259.94163574 -65.42431641 260.55957031 C-69.08902185 262.84637652 -72.77067147 265.10337069 -76.46875 267.3359375 C-75.29957031 267.35011719 -74.13039063 267.36429687 -72.92578125 267.37890625 C-71.37756543 267.42582188 -69.82938956 267.47406919 -68.28125 267.5234375 C-67.51232422 267.52923828 -66.74339844 267.53503906 -65.95117188 267.54101562 C-61.65368559 267.70701295 -59.93447728 267.95787653 -56.48046875 270.76171875 C-53.22370921 274.92910619 -53.06361352 278.16118544 -53.46875 283.3359375 C-54.32421875 286.5625 -54.32421875 286.5625 -55.65625 289.9609375 C-55.91398193 290.61932617 -56.17171387 291.27771484 -56.43725586 291.95605469 C-65.26320261 314.10266589 -75.28302262 335.79117391 -85.46875 357.3359375 C-85.94602539 358.34833496 -86.42330078 359.36073242 -86.91503906 360.40380859 C-99.46623518 386.9758857 -112.27760496 413.47910256 -127.06201172 438.88964844 C-128.85969536 442.01578347 -130.58524108 445.17844171 -132.30908203 448.34570312 C-137.92046055 458.63136219 -144.07225182 468.52238185 -150.46875 478.3359375 C-151.08556641 479.28307617 -151.70238281 480.23021484 -152.33789062 481.20605469 C-164.3984907 499.6576906 -176.78491933 517.85166651 -191.46875 534.3359375 C-192.32984375 535.30789063 -193.1909375 536.27984375 -194.078125 537.28125 C-200.50610529 544.42858214 -207.26468014 551.26090142 -214.03125 558.0859375 C-215.32458252 559.39884766 -215.32458252 559.39884766 -216.64404297 560.73828125 C-222.60484105 566.7069804 -228.88197349 572.07393876 -235.46875 577.3359375 C-236.49610478 578.19955808 -237.51950766 579.06795494 -238.53515625 579.9453125 C-268.8405299 605.93489742 -305.08126169 626.28774564 -343.03125 638.6484375 C-344.15092163 639.018479 -344.15092163 639.018479 -345.29321289 639.39599609 C-349.69148067 640.75701901 -353.89461244 641.55578477 -358.4765625 642.03515625 C-368.76318927 642.91980683 -368.76318927 642.91980683 -377.13085938 648.23828125 C-380.0905272 653.47702763 -381.40931949 659.18999263 -382.70605469 665.02441406 C-383.49147548 668.43460858 -384.44028768 671.75769852 -385.4453125 675.109375 C-391.53270265 695.6122413 -396.47170417 716.62181242 -399.875 737.74609375 C-399.98544144 738.42993637 -400.09588287 739.11377899 -400.20967102 739.81834412 C-400.73022336 743.07389318 -401.22721401 746.32992535 -401.69604492 749.59350586 C-402.99500677 758.15810906 -404.67596671 765.24768048 -411.21875 771.3984375 C-411.92 772.06488281 -412.62125 772.73132813 -413.34375 773.41796875 C-415.28137387 775.16681677 -417.24026203 776.88361347 -419.21875 778.5859375 C-428.59460477 786.69080213 -436.8077506 795.61090024 -444.46875 805.3359375 C-445.49455996 806.60800922 -446.52200515 807.87876342 -447.55078125 809.1484375 C-448.62781958 810.48159684 -449.704644 811.81492901 -450.78125 813.1484375 C-451.28527344 813.77081299 -451.78929687 814.39318848 -452.30859375 815.03442383 C-454.58175498 817.86789803 -456.7243394 820.6793836 -458.65625 823.7578125 C-459.254375 824.60859375 -459.8525 825.459375 -460.46875 826.3359375 C-463.15625 826.7734375 -463.15625 826.7734375 -465.46875 826.3359375 C-466.46875 825.3359375 -466.46875 825.3359375 -466.68359375 821.75390625 C-466.59253771 814.63052226 -465.25625632 807.64633646 -464.03125 800.6484375 C-463.8339328 799.5115448 -463.8339328 799.5115448 -463.63262939 798.35168457 C-456.72287397 758.87351804 -445.60456965 720.71390351 -431.90625 683.0859375 C-431.5936322 682.22013062 -431.2810144 681.35432373 -430.95892334 680.46228027 C-427.89374249 671.99586022 -424.76962403 663.66407935 -420.75390625 655.59765625 C-414.42843549 643.48214223 -414.42843549 643.48214223 -414.5546875 630.2734375 C-416.3327637 625.1185634 -418.69076648 620.28254044 -421.09423828 615.39550781 C-423.44740795 610.15751095 -424.85652759 604.6982567 -426.28125 599.1484375 C-426.56564941 598.05450684 -426.85004883 596.96057617 -427.14306641 595.83349609 C-447.42619517 516.05000609 -430.54279515 444.13112555 -395.46875 371.3359375 C-394.94635742 370.25119141 -394.42396484 369.16644531 -393.88574219 368.04882812 C-387.09754698 354.03589783 -379.71496854 340.44020149 -371.95458984 326.94482422 C-370.20295551 323.86924675 -368.50812218 320.76548733 -366.81860352 317.65551758 C-355.03591379 296.04278298 -341.52201013 275.52118543 -327.46875 255.3359375 C-326.98744629 254.64113281 -326.50614258 253.94632812 -326.01025391 253.23046875 C-291.84718182 204.02515341 -291.84718182 204.02515341 -280.46875 198.3359375 C-276.21669242 197.82635889 -272.61746781 197.78768582 -268.71875 199.6484375 C-263.97988014 205.30875428 -261.75390603 212.40551678 -259.46875 219.3359375 C-259.35599731 217.90096924 -259.35599731 217.90096924 -259.2409668 216.43701172 C-258.95397884 212.81674685 -258.65457606 209.19758954 -258.35180664 205.57861328 C-258.22352786 204.02549519 -258.09841856 202.47211137 -257.97680664 200.91845703 C-256.15640941 177.74023051 -250.04022221 163.62012893 -234.46875 146.3359375 C-233.6955542 145.47444092 -232.9223584 144.61294434 -232.12573242 143.7253418 C-225.32787942 136.22394001 -218.28565929 128.99752259 -211.11547852 121.85229492 C-209.26916754 120.01139042 -207.42832727 118.16513478 -205.58789062 116.31835938 C-200.23640324 110.9638593 -194.8951522 105.65803621 -189.1262207 100.74829102 C-186.56242023 98.56364147 -184.12092598 96.25670561 -181.65625 93.9609375 C-177.05830619 89.71232413 -172.32104272 85.70211611 -167.44140625 81.77734375 C-163.92606271 78.89023506 -160.51344006 75.89750308 -157.09375 72.8984375 C-150.97174784 67.55421174 -144.69721709 62.49740085 -138.19042969 57.62792969 C-136.34123879 56.24024985 -134.50236671 54.8395651 -132.6640625 53.4375 C-33.0541976 -22.28020281 -33.0541976 -22.28020281 0 0 Z " fill="#5595E0" transform="translate(760.46875,100.6640625)"/>
<path d="M0 0 C7.29008823 5.94094852 10.18221106 12.17484409 11.53125 21.3359375 C15.38586161 82.81300516 -7.77432115 149.15587465 -27.21875 206.7734375 C-27.47498138 207.54173889 -27.73121277 208.31004028 -27.99520874 209.10162354 C-35.51030963 231.54489209 -43.10298947 246.63817531 -63.46875 259.3359375 C-64.43675537 259.94163574 -64.43675537 259.94163574 -65.42431641 260.55957031 C-69.08902185 262.84637652 -72.77067147 265.10337069 -76.46875 267.3359375 C-75.29957031 267.35011719 -74.13039063 267.36429687 -72.92578125 267.37890625 C-71.37756543 267.42582188 -69.82938956 267.47406919 -68.28125 267.5234375 C-67.51232422 267.52923828 -66.74339844 267.53503906 -65.95117188 267.54101562 C-61.65368559 267.70701295 -59.93447728 267.95787653 -56.48046875 270.76171875 C-53.22370921 274.92910619 -53.06361352 278.16118544 -53.46875 283.3359375 C-54.32421875 286.5625 -54.32421875 286.5625 -55.65625 289.9609375 C-55.91398193 290.61932617 -56.17171387 291.27771484 -56.43725586 291.95605469 C-65.26320261 314.10266589 -75.28302262 335.79117391 -85.46875 357.3359375 C-85.94602539 358.34833496 -86.42330078 359.36073242 -86.91503906 360.40380859 C-99.46623518 386.9758857 -112.27760496 413.47910256 -127.06201172 438.88964844 C-128.85969536 442.01578347 -130.58524108 445.17844171 -132.30908203 448.34570312 C-137.92046055 458.63136219 -144.07225182 468.52238185 -150.46875 478.3359375 C-151.08556641 479.28307617 -151.70238281 480.23021484 -152.33789062 481.20605469 C-164.3984907 499.6576906 -176.78491933 517.85166651 -191.46875 534.3359375 C-192.32984375 535.30789063 -193.1909375 536.27984375 -194.078125 537.28125 C-200.50610529 544.42858214 -207.26468014 551.26090142 -214.03125 558.0859375 C-215.32458252 559.39884766 -215.32458252 559.39884766 -216.64404297 560.73828125 C-222.60484105 566.7069804 -228.88197349 572.07393876 -235.46875 577.3359375 C-236.49610478 578.19955808 -237.51950766 579.06795494 -238.53515625 579.9453125 C-268.8405299 605.93489742 -305.08126169 626.28774564 -343.03125 638.6484375 C-344.15092163 639.018479 -344.15092163 639.018479 -345.29321289 639.39599609 C-349.69148067 640.75701901 -353.89461244 641.55578477 -358.4765625 642.03515625 C-368.76318927 642.91980683 -368.76318927 642.91980683 -377.13085938 648.23828125 C-380.0905272 653.47702763 -381.40931949 659.18999263 -382.70605469 665.02441406 C-383.49147548 668.43460858 -384.44028768 671.75769852 -385.4453125 675.109375 C-391.53270265 695.6122413 -396.47170417 716.62181242 -399.875 737.74609375 C-399.98544144 738.42993637 -400.09588287 739.11377899 -400.20967102 739.81834412 C-400.73022336 743.07389318 -401.22721401 746.32992535 -401.69604492 749.59350586 C-402.99500677 758.15810906 -404.67596671 765.24768048 -411.21875 771.3984375 C-411.92 772.06488281 -412.62125 772.73132813 -413.34375 773.41796875 C-415.28137387 775.16681677 -417.24026203 776.88361347 -419.21875 778.5859375 C-428.59460477 786.69080213 -436.8077506 795.61090024 -444.46875 805.3359375 C-445.49455996 806.60800922 -446.52200515 807.87876342 -447.55078125 809.1484375 C-448.62781958 810.48159684 -449.704644 811.81492901 -450.78125 813.1484375 C-451.28527344 813.77081299 -451.78929687 814.39318848 -452.30859375 815.03442383 C-454.58175498 817.86789803 -456.7243394 820.6793836 -458.65625 823.7578125 C-459.254375 824.60859375 -459.8525 825.459375 -460.46875 826.3359375 C-463.15625 826.7734375 -463.15625 826.7734375 -465.46875 826.3359375 C-466.46875 825.3359375 -466.46875 825.3359375 -466.68359375 821.75390625 C-466.59253771 814.63052226 -465.25625632 807.64633646 -464.03125 800.6484375 C-463.8339328 799.5115448 -463.8339328 799.5115448 -463.63262939 798.35168457 C-456.72287397 758.87351804 -445.60456965 720.71390351 -431.90625 683.0859375 C-431.5936322 682.22013062 -431.2810144 681.35432373 -430.95892334 680.46228027 C-427.89374249 671.99586022 -424.76962403 663.66407935 -420.75390625 655.59765625 C-414.42843549 643.48214223 -414.42843549 643.48214223 -414.5546875 630.2734375 C-416.3327637 625.1185634 -418.69076648 620.28254044 -421.09423828 615.39550781 C-423.44740795 610.15751095 -424.85652759 604.6982567 -426.28125 599.1484375 C-426.56564941 598.05450684 -426.85004883 596.96057617 -427.14306641 595.83349609 C-447.42619517 516.05000609 -430.54279515 444.13112555 -395.46875 371.3359375 C-394.94635742 370.25119141 -394.42396484 369.16644531 -393.88574219 368.04882812 C-387.09754698 354.03589783 -379.71496854 340.44020149 -371.95458984 326.94482422 C-370.20295551 323.86924675 -368.50812218 320.76548733 -366.81860352 317.65551758 C-355.03591379 296.04278298 -341.52201013 275.52118543 -327.46875 255.3359375 C-326.98744629 254.64113281 -326.50614258 253.94632812 -326.01025391 253.23046875 C-291.84718182 204.02515341 -291.84718182 204.02515341 -280.46875 198.3359375 C-276.21669242 197.82635889 -272.61746781 197.78768582 -268.71875 199.6484375 C-263.97988014 205.30875428 -261.75390603 212.40551678 -259.46875 219.3359375 C-259.35599731 217.90096924 -259.35599731 217.90096924 -259.2409668 216.43701172 C-258.95397884 212.81674685 -258.65457606 209.19758954 -258.35180664 205.57861328 C-258.22352786 204.02549519 -258.09841856 202.47211137 -257.97680664 200.91845703 C-256.15640941 177.74023051 -250.04022221 163.62012893 -234.46875 146.3359375 C-233.6955542 145.47444092 -232.9223584 144.61294434 -232.12573242 143.7253418 C-225.32787942 136.22394001 -218.28565929 128.99752259 -211.11547852 121.85229492 C-209.26916754 120.01139042 -207.42832727 118.16513478 -205.58789062 116.31835938 C-200.23640324 110.9638593 -194.8951522 105.65803621 -189.1262207 100.74829102 C-186.56242023 98.56364147 -184.12092598 96.25670561 -181.65625 93.9609375 C-177.05830619 89.71232413 -172.32104272 85.70211611 -167.44140625 81.77734375 C-163.92606271 78.89023506 -160.51344006 75.89750308 -157.09375 72.8984375 C-150.97174784 67.55421174 -144.69721709 62.49740085 -138.19042969 57.62792969 C-136.34123879 56.24024985 -134.50236671 54.8395651 -132.6640625 53.4375 C-33.0541976 -22.28020281 -33.0541976 -22.28020281 0 0 Z M-93.46875 59.3359375 C-94.0875 59.76310059 -94.70625 60.19026367 -95.34375 60.63037109 C-114.29313145 73.73550821 -132.24444683 87.96443673 -149.77734375 102.89892578 C-151.46167607 104.32992752 -153.1522128 105.75330785 -154.84375 107.17578125 C-162.09097703 113.29731577 -169.09240082 119.63156834 -175.96411133 126.17285156 C-178.78863519 128.85627554 -181.60940532 131.49640257 -184.625 133.96484375 C-187.41384063 136.29015455 -189.93325307 138.73929514 -192.46875 141.3359375 C-193.27054688 142.12613281 -194.07234375 142.91632813 -194.8984375 143.73046875 C-199.39737103 148.17909471 -203.72970809 152.67930465 -207.8359375 157.4921875 C-209.41025616 159.26988704 -211.05945993 160.88973901 -212.78125 162.5234375 C-216.00711436 165.72004232 -218.89604905 169.15857271 -221.71875 172.7109375 C-222.35550659 173.48667114 -222.35550659 173.48667114 -223.00512695 174.27807617 C-229.74937412 182.95384359 -230.22152086 193.25910301 -231.14524651 203.79933357 C-231.37560792 206.42249732 -231.61985513 209.0440554 -231.86756897 211.66563416 C-232.48049467 218.18016561 -233.07194507 224.69660241 -233.66046143 231.21337891 C-234.15854838 236.72389336 -234.66680073 242.2332842 -235.18860054 247.74160576 C-235.42650982 250.29506261 -235.64994219 252.84950396 -235.87278748 255.40431213 C-238.33358262 282.20077012 -238.33358262 282.20077012 -242.46875 286.3359375 C-246.89809871 286.71130604 -249.49048126 286.79512487 -253.53125 284.8984375 C-260.4672457 278.84788806 -265.09007669 270.98992003 -269.53125 263.0234375 C-270.0478418 262.10860596 -270.56443359 261.19377441 -271.09667969 260.2512207 C-274.76484248 253.71274946 -278.26754502 247.11743753 -281.46875 240.3359375 C-285.8746732 244.46290095 -289.36428041 249.02124122 -292.90625 253.8984375 C-293.51533203 254.73270264 -294.12441406 255.56696777 -294.75195312 256.42651367 C-296.66559531 259.05727999 -298.56925111 261.69494393 -300.46875 264.3359375 C-301.05930176 265.15642578 -301.64985352 265.97691406 -302.25830078 266.82226562 C-314.37178012 283.72353414 -325.6657058 301.18820221 -336.17529297 319.13183594 C-337.12313721 320.74699974 -338.07600342 322.35921928 -339.03173828 323.96972656 C-349.58562396 341.77398508 -359.24530198 359.95376637 -368.52215576 378.44921875 C-369.40463652 380.20814874 -370.2903279 381.9654669 -371.17626953 383.72265625 C-389.13445023 419.51673973 -404.14731314 457.26029668 -408.46875 497.3359375 C-408.58089844 498.31691406 -408.69304687 499.29789063 -408.80859375 500.30859375 C-412.08195308 534.3425627 -406.797232 568.62009106 -397.46875 601.3359375 C-394.92212484 598.19861976 -393.25267232 594.99973117 -391.5703125 591.33203125 C-391.29922165 590.74531647 -391.0281308 590.15860168 -390.74882507 589.55410767 C-390.16486376 588.28942915 -389.58293321 587.02381132 -389.00283813 585.75735474 C-387.4458386 582.35949034 -385.87267806 578.96911698 -384.30078125 575.578125 C-383.82009438 574.53988335 -383.82009438 574.53988335 -383.32969666 573.48066711 C-378.66972312 563.43201835 -373.81923842 553.47494598 -368.99609375 543.50390625 C-367.03675801 539.43991319 -365.09742157 535.36656509 -363.15917969 531.29248047 C-355.53398492 515.27740982 -347.70430098 499.43153382 -339.13867188 483.89599609 C-335.32035098 476.95436633 -331.65598083 469.94277705 -328.03125 462.8984375 C-322.33581251 451.86151147 -316.30183895 441.04885082 -310.13671875 430.26904297 C-307.82871709 426.21044637 -305.55875014 422.13105549 -303.28759766 418.05175781 C-296.46152324 405.7963259 -289.46334745 393.65104459 -282.35644531 381.55664062 C-280.69655392 378.72460658 -279.0439188 375.8885783 -277.39515686 373.05006409 C-268.63159179 357.96312798 -259.66126557 343.04257977 -250.33349609 328.29492188 C-248.39381962 325.21703776 -246.47023823 322.12959268 -244.55078125 319.0390625 C-238.15565661 308.74445215 -231.70385836 298.51434217 -224.90917969 288.47900391 C-223.1777068 285.90292442 -221.46762419 283.31316281 -219.7578125 280.72265625 C-212.04557871 269.05426151 -204.16397922 257.56330472 -195.89013672 246.28662109 C-194.17709482 243.93567559 -192.50033463 241.56065427 -190.82592773 239.18212891 C-163.30445969 200.15460774 -132.31136395 159.09383662 -95.46875 128.3359375 C-94.34442521 127.38355205 -93.22079256 126.43034922 -92.09765625 125.4765625 C-88.89313058 122.75692932 -85.68228962 120.04491221 -82.46875 117.3359375 C-83.46362733 118.94328618 -84.46506486 120.54657395 -85.46875 122.1484375 C-86.3040625 123.48841797 -86.3040625 123.48841797 -87.15625 124.85546875 C-89.04369045 127.77096187 -91.07851909 130.56327575 -93.1328125 133.36328125 C-97.44182038 139.25102906 -101.55761279 145.25970839 -105.640625 151.3046875 C-106.83406004 153.07159132 -108.03005487 154.83673829 -109.2265625 156.6015625 C-118.45933582 170.23150167 -127.56123612 183.94761741 -136.59375 197.7109375 C-137.04551605 198.39914581 -137.4972821 199.08735413 -137.96273804 199.79641724 C-145.91057068 211.90954707 -153.75574455 224.08467534 -161.53613281 236.30615234 C-163.53595565 239.44129653 -165.54415664 242.57093188 -167.5546875 245.69921875 C-179.54949866 264.36873423 -191.22425811 283.21979837 -202.734375 302.19140625 C-205.00446268 305.93219511 -207.28313379 309.66747864 -209.57247925 313.39651489 C-218.10860589 327.30341897 -226.36818155 341.31063288 -234.2734375 355.58984375 C-237.10886968 360.70970323 -240.01861899 365.78150967 -242.96875 370.8359375 C-253.09118394 388.22125517 -262.79826374 405.83731004 -272.33984375 423.546875 C-274.31368372 427.20833298 -276.30339386 430.85993661 -278.31640625 434.5 C-287.33258098 450.82233153 -295.84028836 467.40051496 -304.29119873 484.02050781 C-305.4574619 486.31374161 -306.62544661 488.60609325 -307.79345703 490.8984375 C-317.96812649 510.8901688 -327.65542508 531.04454106 -336.77539062 551.5390625 C-338.37144235 555.12415218 -339.98872996 558.69939141 -341.609375 562.2734375 C-349.3622958 579.44223171 -356.47781145 596.84667862 -363.46875 614.3359375 C-359.96675709 615.50326847 -359.05406363 615.12433471 -355.62890625 614 C-354.65864502 613.68248779 -353.68838379 613.36497559 -352.6887207 613.0378418 C-351.64675537 612.68246338 -350.60479004 612.32708496 -349.53125 611.9609375 C-347.91512817 611.41336792 -347.91512817 611.41336792 -346.26635742 610.85473633 C-336.02020537 607.30546503 -326.19870799 603.11002702 -316.46875 598.3359375 C-315.61716309 597.91973145 -314.76557617 597.50352539 -313.88818359 597.07470703 C-289.3432419 584.9505371 -266.97609724 569.43588802 -246.46875 551.3359375 C-245.36237183 550.36092285 -245.36237183 550.36092285 -244.23364258 549.36621094 C-237.92835084 543.75463125 -231.87626259 537.9265636 -225.90625 531.9609375 C-224.58463867 530.65769531 -224.58463867 530.65769531 -223.23632812 529.328125 C-217.20692139 523.31206751 -211.78528258 516.98345088 -206.46875 510.3359375 C-204.88837531 508.50005313 -203.30569926 506.66614175 -201.71875 504.8359375 C-195.60172337 497.52604296 -190.37930636 489.62281031 -185.08007812 481.71118164 C-183.40194489 479.2374607 -181.68341495 476.79571876 -179.95703125 474.35546875 C-176.58446316 469.55198745 -173.42327151 464.64392235 -170.34375 459.6484375 C-169.78880859 458.74907471 -169.23386719 457.84971191 -168.66210938 456.9230957 C-162.31300577 446.5539072 -156.34591798 435.97803905 -150.46875 425.3359375 C-149.95376953 424.40507324 -149.43878906 423.47420898 -148.90820312 422.51513672 C-129.07233166 386.55167619 -111.34674187 349.68286958 -94.29785156 312.33398438 C-93.15735536 309.83626356 -92.0076768 307.34367013 -90.85058594 304.85351562 C-90.39200195 303.86287109 -89.93341797 302.87222656 -89.4609375 301.8515625 C-89.07019043 301.01399414 -88.67944336 300.17642578 -88.27685547 299.31347656 C-87.34265773 297.38342011 -87.34265773 297.38342011 -87.46875 295.3359375 C-91.34287203 295.84740757 -95.21678298 296.36044909 -99.09054565 296.87463379 C-100.46737843 297.05712937 -101.84427064 297.23917712 -103.22122192 297.42077637 C-110.93645747 298.43843954 -118.64029925 299.49878289 -126.33081055 300.69165039 C-152.19932971 304.6519934 -152.19932971 304.6519934 -160.46875 299.3359375 C-160.79875 298.3459375 -161.12875 297.3559375 -161.46875 296.3359375 C-152.45419308 279.86105762 -125.90004302 268.6626348 -110.625 259.30004883 C-100.09694395 252.84301216 -89.60244045 246.39918043 -79.46875 239.3359375 C-78.88818848 238.9534082 -78.30762695 238.57087891 -77.70947266 238.17675781 C-75.94019122 237.00950671 -74.20381497 235.80330768 -72.46875 234.5859375 C-70.98375 233.57273437 -70.98375 233.57273437 -69.46875 232.5390625 C-59.55458933 223.42387523 -55.89893813 205.89358392 -51.78125 193.5859375 C-51.43625458 192.56315704 -51.09125916 191.54037659 -50.73580933 190.48660278 C-24.84087972 114.25970174 -24.84087972 114.25970174 -15.28125 34.8359375 C-15.26900391 33.84851563 -15.25675781 32.86109375 -15.24414062 31.84375 C-15.24220703 30.90273437 -15.24027344 29.96171875 -15.23828125 28.9921875 C-15.23417236 28.14462891 -15.23006348 27.29707031 -15.22583008 26.42382812 C-15.27550895 24.11541165 -15.27550895 24.11541165 -17.46875 22.3359375 C-41.50403997 19.81033785 -74.77977681 46.35480792 -93.46875 59.3359375 Z " fill="#0F1010" transform="translate(760.46875,100.6640625)"/>
<path d="M0 0 C0 0.99 0 1.98 0 3 C-0.99 3.495 -0.99 3.495 -2 4 C-1.34 2.68 -0.68 1.36 0 0 Z M-5 6 C-4.34 6.66 -3.68 7.32 -3 8 C-7.49849446 12.58670024 -11.92194384 17.05040077 -17 21 C-18.68873879 22.64429829 -20.35305515 24.31384218 -22 26 C-23.26950748 27.27215781 -24.54038752 28.5429471 -25.8125 29.8125 C-26.41707031 30.41707031 -27.02164063 31.02164063 -27.64453125 31.64453125 C-28.09183594 32.09183594 -28.53914062 32.53914062 -29 33 C-29.66 32.67 -30.32 32.34 -31 32 C-22.42 23.42 -13.84 14.84 -5 6 Z M-33 33 C-31 34 -31 34 -31 34 Z " fill="#F2F0EF" transform="translate(567,636)"/>
<path d="M0 0 C0.75 1.75 0.75 1.75 1 4 C-0.9375 6.25 -0.9375 6.25 -3 8 C-2.690625 7.236875 -2.38125 6.47375 -2.0625 5.6875 C-1.32106407 3.81210323 -0.63771783 1.91315348 0 0 Z M-13 16 C-12.34 16.33 -11.68 16.66 -11 17 C-15.8836671 22.90436923 -21.1719243 28.03093773 -27 33 C-27.66 32.67 -28.32 32.34 -29 32 C-23.72 26.72 -18.44 21.44 -13 16 Z " fill="#EFEEEC" transform="translate(356,860)"/>
<path d="M0 0 C0.33 0 0.66 0 1 0 C0.56699236 6.81987029 -0.90787824 11.91643021 -4 18 C-4.33 18 -4.66 18 -5 18 C-4.51030705 11.38914524 -2.66557258 6.05022986 0 0 Z " fill="#5BA2E3" transform="translate(366,540)"/>
<path d="M0 0 C1.13732426 3.40401948 0.83989957 5.77456664 0.0625 9.25 C-0.13214844 10.14203125 -0.32679688 11.0340625 -0.52734375 11.953125 C-0.68332031 12.62859375 -0.83929687 13.3040625 -1 14 C-1.66 14 -2.32 14 -3 14 C-3.12375 14.969375 -3.2475 15.93875 -3.375 16.9375 C-3.58125 17.948125 -3.7875 18.95875 -4 20 C-4.66 20.33 -5.32 20.66 -6 21 C-4.29977612 13.87352969 -2.42080258 6.9165788 0 0 Z " fill="#EEECEC" transform="translate(745,268)"/>
<path d="M0 0 C0.33 0.66 0.66 1.32 1 2 C-1.16252661 6.86568488 -4.93525257 9.75933835 -9 13 C-7.47987323 7.59510481 -3.72614782 4.01507372 0 0 Z " fill="#0A080B" transform="translate(600,299)"/>
<path d="M0 0 C0.66 0.33 1.32 0.66 2 1 C1.03644647 11.55808656 1.03644647 11.55808656 0 16 C-0.99 15.67 -1.98 15.34 -3 15 C-2.01 10.05 -1.02 5.1 0 0 Z " fill="#E7E6E5" transform="translate(368,798)"/>
<path d="M0 0 C0.66 0 1.32 0 2 0 C1.93967927 1.4386494 1.85079867 2.87611902 1.75 4.3125 C1.70359375 5.11300781 1.6571875 5.91351562 1.609375 6.73828125 C1 9 1 9 -3 12 C-2.01 8.04 -1.02 4.08 0 0 Z " fill="#181817" transform="translate(312,834)"/>
<path d="M0 0 C1.56393356 3.97376829 0.36145292 6.81377903 -0.9375 10.75 C-1.31777344 11.92046875 -1.69804688 13.0909375 -2.08984375 14.296875 C-2.39019531 15.18890625 -2.69054687 16.0809375 -3 17 C-3.66 15.68 -4.32 14.36 -5 13 C-4.34 13 -3.68 13 -3 13 C-3 10.69 -3 8.38 -3 6 C-2.34 6 -1.68 6 -1 6 C-0.67 4.02 -0.34 2.04 0 0 Z " fill="#5EABEE" transform="translate(726,230)"/>
<path d="M0 0 C1.09898702 3.29696105 0.87124444 4.40494903 0.0625 7.6875 C-0.22947266 8.89986328 -0.22947266 8.89986328 -0.52734375 10.13671875 C-0.68332031 10.75160156 -0.83929688 11.36648438 -1 12 C-3.2903586 8.00949059 -3.01832411 5.49759815 -2 1 C-1.34 0.67 -0.68 0.34 0 0 Z " fill="#F3F2F0" transform="translate(304,861)"/>
<path d="M0 0 C0.33 0.66 0.66 1.32 1 2 C0.34 2 -0.32 2 -1 2 C-0.79375 2.556875 -0.5875 3.11375 -0.375 3.6875 C0.10695211 6.659538 -0.73434972 8.31979941 -2 11 C-2.66 11 -3.32 11 -4 11 C-3.71890887 9.35232753 -3.42481474 7.70686855 -3.125 6.0625 C-2.96257812 5.14597656 -2.80015625 4.22945312 -2.6328125 3.28515625 C-2.42398437 2.53105469 -2.21515625 1.77695312 -2 1 C-1.34 0.67 -0.68 0.34 0 0 Z " fill="#191919" transform="translate(336,548)"/>
<path d="M0 0 C0.33 0 0.66 0 1 0 C0.67 2.97 0.34 5.94 0 9 C-0.99 9 -1.98 9 -3 9 C-2.25 2.25 -2.25 2.25 0 0 Z " fill="#E8E7E5" transform="translate(758,225)"/>
<path d="M0 0 C0.66 0.33 1.32 0.66 2 1 C2 3.64 2 6.28 2 9 C1.01 9 0.02 9 -1 9 C-0.67 6.03 -0.34 3.06 0 0 Z " fill="#1E1D1C" transform="translate(328,575)"/>
<path d="M0 0 C0.33 0 0.66 0 1 0 C1 2.64 1 5.28 1 8 C0.34 8 -0.32 8 -1 8 C-1 8.99 -1 9.98 -1 11 C-1.66 11 -2.32 11 -3 11 C-2.01 7.37 -1.02 3.74 0 0 Z " fill="#111620" transform="translate(709,290)"/>
<path d="M0 0 C1.32 0.66 2.64 1.32 4 2 C1.66666667 4.33333333 -0.66666667 6.66666667 -3 9 C-2.44271087 5.65626525 -1.64826111 2.96687001 0 0 Z " fill="#0B090A" transform="translate(435,557)"/>
<path d="M0 0 C0.33 0 0.66 0 1 0 C1.125 3.375 1.125 3.375 1 7 C0.34 7.66 -0.32 8.32 -1 9 C-2 8 -2 8 -2.1875 5.0625 C-2 2 -2 2 0 0 Z " fill="#5391D4" transform="translate(354,596)"/>
<path d="M0 0 C1.31223496 3.93670488 0.24296256 6.12488144 -1 10 C-1.66 9.34 -2.32 8.68 -3 8 C-2.60495559 5.0371669 -1.40182371 2.61673759 0 0 Z " fill="#F1F0EF" transform="translate(336,539)"/>
<path d="M0 0 C0.66 0.66 1.32 1.32 2 2 C1.34 2.66 0.68 3.32 0 4 C-0.99 3.67 -1.98 3.34 -3 3 C-2.01 2.01 -1.02 1.02 0 0 Z " fill="#14161B" transform="translate(636,256)"/>
</svg>
